<?xml version="1.0" encoding="iso-8859-1"?>
<!-- Generator: Adobe Illustrator 19.0.0, SVG Export Plug-In . SVG Version: 6.00 Build 0)  -->
<svg xmlns="http://www.w3.org/2000/svg" xmlns:xlink="http://www.w3.org/1999/xlink" version="1.1" id="Layer_1" x="0px" y="0px" viewBox="0 0 488 488" style="enable-background:new 0 0 488 488;" xml:space="preserve" width="512px" height="512px">
<g transform="translate(0 -540.36)">
	<g>
		<g>
			<path d="M183,682.51c5.5,0,10-4.5,10-10v-10.6h9.8c5.5,0,10-4.5,10-10s-4.4-10-10-10H193v-9.9c0-5.5-4.5-10-10-10s-10,4.5-10,10     v9.9h-9.8c-5.5,0-10,4.5-10,10s4.5,10,10,10h9.8v10.6C173,678.01,177.5,682.51,183,682.51z" fill="#666666"/>
			<path d="M100.1,662.61h-8.4c-5.5,0-10,4.5-10,10s4.5,10,10,10h40.4c5.5,0,10-4.5,10-10c-0.1-5.6-4.6-10.1-10.1-10.1v0h-1.6     c3.8-11.1,1.1-23-7.3-31.4c-8.2-8.2-21.6-11.3-34.1-7.9c-5.3,1.5-8.5,7-7,12.3s7,8.5,12.3,7c5.5-1.5,11.5-0.4,14.7,2.8     c3,3,3.9,7,2.5,11C109.4,660.01,104.8,662.61,100.1,662.61z" fill="#666666"/>
			<path d="M264.6,702.41c5.5,0,10-4.5,10-10v-9.9c5.5,0,9.9-4.5,9.9-10s-4.4-9.9-9.9-10v-9.9c0-5.5-4.5-10-10-10s-10,4.5-10,10v9.9     h-10.5v-30.5c0-5.5-4.5-10-10-10s-10,4.5-10,10v40.5c0,5.5,4.5,10,10,10h20.5v9.9C254.6,697.91,259.1,702.41,264.6,702.41z" fill="#666666"/>
			<path d="M40.4,784.11h254.5v10.6c0,5.5,4.5,10,10,10h122c5.5,0,10-4.5,10-10v-81c0-5.4-4.4-9.9-10-9.9v0c-5.5,0-10,4.5-10,10v71     h-102v-71c0-3.6-1.9-6.9-5-8.7c-3.1-1.8-6.9-1.8-10,0l-44.4,25.9l-14.4-14.4c-3.9-3.9-10.2-3.9-14.1,0c-3.9,3.9-3.9,10.2,0,14.1     l19.8,19.9c3.2,3.2,8.2,3.9,12.1,1.6l36-21v32.9H50.4v-193.9l295.4-0.1l0.1,46.5c-12.3,7-20.6,20.2-20.6,35.3     c0,22.4,18.2,40.6,40.5,40.6s40.5-18.2,40.5-40.6c0-22.3-18.1-40.5-40.4-40.6l-0.1-51.2c0-5.5-4.5-10-10-10l-315.4,0.1     c-5.5,0-10,4.5-10,10v213.9c0,2.7,1.1,5.2,2.9,7.1C35.2,783.11,37.7,784.11,40.4,784.11z M365.9,631.31     c11.3,0,20.5,9.3,20.5,20.6s-9.2,20.6-20.5,20.6s-20.5-9.2-20.5-20.6C345.4,640.51,354.6,631.31,365.9,631.31z" fill="#666666"/>
			<path d="M30.5,886.41c0,22.4,18.2,40.6,40.5,40.6s40.5-18.2,40.5-40.6c0-22.4-18.2-40.6-40.5-40.6S30.5,864.01,30.5,886.41z      M91.5,886.51c0,11.4-9.2,20.6-20.5,20.6s-20.5-9.3-20.5-20.6c0-11.4,9.2-20.6,20.5-20.6S91.5,875.11,91.5,886.51z" fill="#666666"/>
			<path d="M132,927.61c-5.5,0-10,4.5-10,10v61H20v-61c0-5.5-4.5-10-10-10s-10,4.5-10,10v71c0,5.5,4.5,10,10,10h122     c5.5,0,10-4.4,10-10v-71C142,932.11,137.5,927.61,132,927.61z" fill="#666666"/>
			<path d="M376.5,886.41c0,22.4,18.2,40.6,40.5,40.6s40.5-18.2,40.5-40.6c0-22.4-18.2-40.6-40.5-40.6S376.5,864.01,376.5,886.41z      M437.5,886.51c0,11.4-9.2,20.6-20.5,20.6s-20.5-9.3-20.5-20.6c0-11.4,9.2-20.6,20.5-20.6S437.5,875.11,437.5,886.51z" fill="#666666"/>
			<path d="M478,927.61c-5.5,0-10,4.5-10,10v61H366v-61c0-5.5-4.5-10-10-10s-10,4.5-10,10v71c0,5.5,4.5,10,10,10h122     c5.5,0,10-4.4,10-10v-71C488,932.11,483.5,927.61,478,927.61z" fill="#666666"/>
			<path d="M203.5,886.41c0,22.4,18.2,40.6,40.5,40.6s40.5-18.2,40.5-40.6c0-22.4-18.2-40.6-40.5-40.6S203.5,864.01,203.5,886.41z      M264.5,886.51c0,11.4-9.2,20.6-20.5,20.6s-20.5-9.3-20.5-20.6c0-11.4,9.2-20.6,20.5-20.6S264.5,875.11,264.5,886.51z" fill="#666666"/>
			<path d="M305,927.61c-5.5,0-10,4.5-10,10v61H193v-61c0-5.5-4.5-10-10-10s-10,4.5-10,10v71c0,5.5,4.5,10,10,10h122     c5.5,0,10-4.4,10-10v-71C315,932.11,310.5,927.61,305,927.61z" fill="#666666"/>
		</g>
	</g>
</g>
<g>
</g>
<g>
</g>
<g>
</g>
<g>
</g>
<g>
</g>
<g>
</g>
<g>
</g>
<g>
</g>
<g>
</g>
<g>
</g>
<g>
</g>
<g>
</g>
<g>
</g>
<g>
</g>
<g>
</g>
</svg>
